<mxfile host="app.diagrams.net" agent="Mozilla/5.0 (Windows NT 10.0; Win64; x64) AppleWebKit/537.36 (KHTML, like Gecko) Chrome/127.0.0.0 Safari/537.36" version="24.7.7">
  <diagram name="Page-1" id="e7e014a7-5840-1c2e-5031-d8a46d1fe8dd">
    <mxGraphModel dx="548" dy="440" grid="1" gridSize="10" guides="1" tooltips="1" connect="1" arrows="1" fold="1" page="1" pageScale="1" pageWidth="1169" pageHeight="826" background="none" math="0" shadow="0">
      <root>
        <mxCell id="0" />
        <mxCell id="1" parent="0" />
        <mxCell id="2" value="Thread 1" style="swimlane;whiteSpace=wrap" parent="1" vertex="1">
          <mxGeometry x="165" y="128" width="280" height="862" as="geometry" />
        </mxCell>
        <mxCell id="ulEKuX4qD9KzYHJPsXie-51" style="edgeStyle=orthogonalEdgeStyle;rounded=0;orthogonalLoop=1;jettySize=auto;html=1;exitX=0.5;exitY=1;exitDx=0;exitDy=0;entryX=0.5;entryY=0;entryDx=0;entryDy=0;" parent="2" source="5" target="7" edge="1">
          <mxGeometry relative="1" as="geometry" />
        </mxCell>
        <mxCell id="5" value="" style="ellipse;shape=startState;fillColor=#000000;strokeColor=#ff0000;" parent="2" vertex="1">
          <mxGeometry x="100" y="40" width="30" height="30" as="geometry" />
        </mxCell>
        <mxCell id="7" value="Input Username dan&#xa;Password" style="fontSize=11;align=center;spacing=5;" parent="2" vertex="1">
          <mxGeometry x="60" y="110" width="110" height="40" as="geometry" />
        </mxCell>
        <mxCell id="ulEKuX4qD9KzYHJPsXie-72" style="edgeStyle=orthogonalEdgeStyle;rounded=0;orthogonalLoop=1;jettySize=auto;html=1;exitX=0.5;exitY=1;exitDx=0;exitDy=0;entryX=0.5;entryY=0;entryDx=0;entryDy=0;" parent="2" source="ulEKuX4qD9KzYHJPsXie-60" target="ulEKuX4qD9KzYHJPsXie-69" edge="1">
          <mxGeometry relative="1" as="geometry" />
        </mxCell>
        <mxCell id="ulEKuX4qD9KzYHJPsXie-60" value="user mencari barang &#xa;yang di inginkan" style="fontSize=11;" parent="2" vertex="1">
          <mxGeometry x="60" y="365" width="110" height="50" as="geometry" />
        </mxCell>
        <mxCell id="ulEKuX4qD9KzYHJPsXie-74" style="edgeStyle=orthogonalEdgeStyle;rounded=0;orthogonalLoop=1;jettySize=auto;html=1;exitX=0.5;exitY=1;exitDx=0;exitDy=0;" parent="2" source="ulEKuX4qD9KzYHJPsXie-69" target="ulEKuX4qD9KzYHJPsXie-73" edge="1">
          <mxGeometry relative="1" as="geometry" />
        </mxCell>
        <mxCell id="ulEKuX4qD9KzYHJPsXie-69" value="user mengisi data &#xa;diri , alamat dan &#xa;dana untuk membeli" style="fontSize=12;" parent="2" vertex="1">
          <mxGeometry x="60" y="432" width="110" height="50" as="geometry" />
        </mxCell>
        <mxCell id="ulEKuX4qD9KzYHJPsXie-73" value="User Checkout barang&#xa;yang di inginkan" style="fontSize=11;" parent="2" vertex="1">
          <mxGeometry x="60" y="502" width="110" height="50" as="geometry" />
        </mxCell>
        <mxCell id="ulEKuX4qD9KzYHJPsXie-81" value="User membayar di&#xa;payment page" style="fontSize=11;" parent="2" vertex="1">
          <mxGeometry x="60" y="622" width="110" height="50" as="geometry" />
        </mxCell>
        <mxCell id="ulEKuX4qD9KzYHJPsXie-96" style="edgeStyle=orthogonalEdgeStyle;rounded=0;orthogonalLoop=1;jettySize=auto;html=1;exitX=0.5;exitY=1;exitDx=0;exitDy=0;" parent="2" source="ulEKuX4qD9KzYHJPsXie-85" edge="1">
          <mxGeometry relative="1" as="geometry">
            <mxPoint x="110" y="822" as="targetPoint" />
          </mxGeometry>
        </mxCell>
        <mxCell id="ulEKuX4qD9KzYHJPsXie-85" value="User menunggu &#xa;hingga paket sampai" style="fontSize=11;" parent="2" vertex="1">
          <mxGeometry x="55" y="730" width="110" height="50" as="geometry" />
        </mxCell>
        <mxCell id="pRld5jApPG9XaELKzfIs-18" value="" style="ellipse;html=1;shape=endState;fillColor=#000000;strokeColor=#ff0000;" vertex="1" parent="2">
          <mxGeometry x="95" y="822" width="30" height="30" as="geometry" />
        </mxCell>
        <mxCell id="3" value="Thread 2" style="swimlane;whiteSpace=wrap" parent="1" vertex="1">
          <mxGeometry x="445" y="128" width="280" height="862" as="geometry" />
        </mxCell>
        <mxCell id="15" value="Show login page" style="" parent="3" vertex="1">
          <mxGeometry x="85.5" y="30" width="110" height="50" as="geometry" />
        </mxCell>
        <mxCell id="18" value="Show home page" style="" parent="3" vertex="1">
          <mxGeometry x="87" y="285" width="110" height="50" as="geometry" />
        </mxCell>
        <mxCell id="ulEKuX4qD9KzYHJPsXie-56" value="wrong" style="edgeStyle=orthogonalEdgeStyle;rounded=0;orthogonalLoop=1;jettySize=auto;html=1;entryX=0.5;entryY=1;entryDx=0;entryDy=0;" parent="3" source="ulEKuX4qD9KzYHJPsXie-52" target="15" edge="1">
          <mxGeometry relative="1" as="geometry" />
        </mxCell>
        <mxCell id="ulEKuX4qD9KzYHJPsXie-58" style="edgeStyle=orthogonalEdgeStyle;rounded=0;orthogonalLoop=1;jettySize=auto;html=1;entryX=0.5;entryY=0;entryDx=0;entryDy=0;" parent="3" source="ulEKuX4qD9KzYHJPsXie-52" target="18" edge="1">
          <mxGeometry relative="1" as="geometry" />
        </mxCell>
        <mxCell id="ulEKuX4qD9KzYHJPsXie-59" value="Correct" style="edgeLabel;html=1;align=center;verticalAlign=middle;resizable=0;points=[];" parent="ulEKuX4qD9KzYHJPsXie-58" vertex="1" connectable="0">
          <mxGeometry x="-0.1206" y="-2" relative="1" as="geometry">
            <mxPoint as="offset" />
          </mxGeometry>
        </mxCell>
        <mxCell id="ulEKuX4qD9KzYHJPsXie-52" value="Checking&amp;nbsp;&lt;div&gt;username&lt;/div&gt;&lt;div&gt;&amp;nbsp;password&lt;/div&gt;" style="rhombus;whiteSpace=wrap;html=1;" parent="3" vertex="1">
          <mxGeometry x="96" y="150" width="90" height="88" as="geometry" />
        </mxCell>
        <mxCell id="ulEKuX4qD9KzYHJPsXie-76" value="Sistem mendeteksi &#xa;user checkout barang" style="" parent="3" vertex="1">
          <mxGeometry x="87" y="502" width="123" height="50" as="geometry" />
        </mxCell>
        <mxCell id="ulEKuX4qD9KzYHJPsXie-79" value="sistem mengarahkan &#xa;user ke payment page" style="" parent="3" vertex="1">
          <mxGeometry x="87" y="572" width="123" height="50" as="geometry" />
        </mxCell>
        <mxCell id="ulEKuX4qD9KzYHJPsXie-80" style="edgeStyle=orthogonalEdgeStyle;rounded=0;orthogonalLoop=1;jettySize=auto;html=1;exitX=0.5;exitY=1;exitDx=0;exitDy=0;" parent="3" source="ulEKuX4qD9KzYHJPsXie-76" target="ulEKuX4qD9KzYHJPsXie-79" edge="1">
          <mxGeometry relative="1" as="geometry" />
        </mxCell>
        <mxCell id="4" value="Thread 3" style="swimlane;" parent="1" vertex="1">
          <mxGeometry x="725" y="130" width="280" height="860" as="geometry" />
        </mxCell>
        <mxCell id="ulEKuX4qD9KzYHJPsXie-92" style="edgeStyle=orthogonalEdgeStyle;rounded=0;orthogonalLoop=1;jettySize=auto;html=1;" parent="4" source="ulEKuX4qD9KzYHJPsXie-89" target="ulEKuX4qD9KzYHJPsXie-91" edge="1">
          <mxGeometry relative="1" as="geometry">
            <mxPoint x="142.75" y="720" as="targetPoint" />
          </mxGeometry>
        </mxCell>
        <mxCell id="ulEKuX4qD9KzYHJPsXie-89" value="Mengecek Pembayaran" style="" parent="4" vertex="1">
          <mxGeometry x="65.5" y="648" width="154.5" height="50" as="geometry" />
        </mxCell>
        <mxCell id="ulEKuX4qD9KzYHJPsXie-91" value="Pembayaran Berhasil" style="" parent="4" vertex="1">
          <mxGeometry x="65.5" y="740" width="154.5" height="50" as="geometry" />
        </mxCell>
        <mxCell id="ulEKuX4qD9KzYHJPsXie-44" value="" style="endArrow=none;html=1;rounded=0;exitX=0.783;exitY=0.5;exitDx=0;exitDy=0;exitPerimeter=0;entryX=0;entryY=0.5;entryDx=0;entryDy=0;" parent="1" source="5" target="15" edge="1">
          <mxGeometry width="50" height="50" relative="1" as="geometry">
            <mxPoint x="510" y="320" as="sourcePoint" />
            <mxPoint x="560" y="270" as="targetPoint" />
          </mxGeometry>
        </mxCell>
        <mxCell id="ulEKuX4qD9KzYHJPsXie-57" style="edgeStyle=orthogonalEdgeStyle;rounded=0;orthogonalLoop=1;jettySize=auto;html=1;entryX=0.5;entryY=1;entryDx=0;entryDy=0;" parent="1" source="ulEKuX4qD9KzYHJPsXie-52" target="7" edge="1">
          <mxGeometry relative="1" as="geometry" />
        </mxCell>
        <mxCell id="ulEKuX4qD9KzYHJPsXie-68" style="edgeStyle=orthogonalEdgeStyle;rounded=0;orthogonalLoop=1;jettySize=auto;html=1;entryX=1;entryY=0.5;entryDx=0;entryDy=0;" parent="1" source="18" target="ulEKuX4qD9KzYHJPsXie-60" edge="1">
          <mxGeometry relative="1" as="geometry">
            <Array as="points">
              <mxPoint x="600" y="518" />
            </Array>
          </mxGeometry>
        </mxCell>
        <mxCell id="ulEKuX4qD9KzYHJPsXie-78" style="edgeStyle=orthogonalEdgeStyle;rounded=0;orthogonalLoop=1;jettySize=auto;html=1;" parent="1" source="ulEKuX4qD9KzYHJPsXie-73" target="ulEKuX4qD9KzYHJPsXie-76" edge="1">
          <mxGeometry relative="1" as="geometry" />
        </mxCell>
        <mxCell id="ulEKuX4qD9KzYHJPsXie-84" style="edgeStyle=orthogonalEdgeStyle;rounded=0;orthogonalLoop=1;jettySize=auto;html=1;" parent="1" source="ulEKuX4qD9KzYHJPsXie-81" target="ulEKuX4qD9KzYHJPsXie-89" edge="1">
          <mxGeometry relative="1" as="geometry">
            <mxPoint x="532" y="825" as="targetPoint" />
            <Array as="points">
              <mxPoint x="280" y="810" />
            </Array>
          </mxGeometry>
        </mxCell>
        <mxCell id="ulEKuX4qD9KzYHJPsXie-94" style="edgeStyle=orthogonalEdgeStyle;rounded=0;orthogonalLoop=1;jettySize=auto;html=1;exitX=0;exitY=0.5;exitDx=0;exitDy=0;entryX=1;entryY=0.75;entryDx=0;entryDy=0;" parent="1" source="ulEKuX4qD9KzYHJPsXie-91" target="ulEKuX4qD9KzYHJPsXie-85" edge="1">
          <mxGeometry relative="1" as="geometry" />
        </mxCell>
        <mxCell id="x3ZoVNxYJg_tlEmV5jLK-19" style="edgeStyle=orthogonalEdgeStyle;rounded=0;orthogonalLoop=1;jettySize=auto;html=1;entryX=1;entryY=0.5;entryDx=0;entryDy=0;" parent="1" source="ulEKuX4qD9KzYHJPsXie-79" target="ulEKuX4qD9KzYHJPsXie-81" edge="1">
          <mxGeometry relative="1" as="geometry">
            <Array as="points">
              <mxPoint x="600" y="775" />
            </Array>
          </mxGeometry>
        </mxCell>
      </root>
    </mxGraphModel>
  </diagram>
</mxfile>
